# xmcd
#
# Track frame offsets: 
#        150
#        7840
#        34118
#        53767
#        81468
#        98686
#        116951
#        131003
#        152382
#        166633
#
# Disc length: 2487 seconds
#
# Revision: 0
# Processed by: cddbd v1.5.2PL0 Copyright (c) Steve Scherf et al.
# Submitted via: ExactAudioCopyFreeDBPlugin 1.0
#
DISCID=6e09b50a
DTITLE=Aaron Meyer - From The Beginning
DYEAR=2007
DGENRE=Classical
TTITLE0=Bourree by G.F. Handel
TTITLE1=Violin Concerto in C Major, Opus 48, 1st movement by D. Kabale
TTITLE1=vsky
TTITLE2=Violin Concert in A Minor, BWV 1041 by J.S. Bach - Allegro
TTITLE3=Violin Concert in A Minor, BWV 1041 by J.S. Bach - Andante
TTITLE4=Violin Concert in A Minor, BWV 1041 by J.S. Bach - Allegro Ass
TTITLE4=ai
TTITLE5=Meditation From "Thais" by J. Massenet
TTITLE6=Liebesleid (Love's Sorrow) by Fritz Kreisler
TTITLE7=Romanza Andaluza, Opus 22, No. 1 by Pablo de Sarsate
TTITLE8="Cadenza" by Aaron Meyer
TTITLE9=Scarlet by Aaron Meyer
EXTD=
EXTT0=
EXTT1=
EXTT2=
EXTT3=
EXTT4=
EXTT5=
EXTT6=
EXTT7=
EXTT8=
EXTT9=
PLAYORDER=
